<?xml version="1.0" encoding="iso-8859-1"?>
<!-- Uploaded to: SVG Repo, www.svgrepo.com, Generator: SVG Repo Mixer Tools -->
<svg fill="#000000" height="800px" width="800px" version="1.1" id="Layer_1" xmlns="http://www.w3.org/2000/svg" xmlns:xlink="http://www.w3.org/1999/xlink" 
	 viewBox="0 0 511.963 511.963" xml:space="preserve">
<g transform="translate(-1)">
	<g>
		<g>
			<path d="M393.513,159.932c-37.76-16.538-65.519-50.569-74.035-90.803c-48.128-13.005-77.542-13.022-124.988-0.034
				c-8.508,40.252-36.267,74.3-74.044,90.837l0.026,104.858l-0.06,1.468c-0.034,3.405,0.503,90.385,136.568,177.408
				c135.671-86.767,136.61-173.303,136.585-176.99l-0.043-0.717L393.513,159.932z M373.246,254.089l-19.055,15.249l3.593,18.014
				c0.708,3.516-0.862,7.091-3.917,8.96c-3.072,1.86-6.946,1.613-9.754-0.606c-0.247-0.196-25.139-19.465-61.184-22.323
				c2.842,36.241,22.127,60.919,22.332,61.184c2.227,2.799,2.466,6.699,0.606,9.754c-1.869,3.063-5.461,4.634-8.96,3.917
				l-18.022-3.601l-15.241,19.055c-1.621,2.022-4.07,3.2-6.665,3.2s-5.043-1.178-6.665-3.2l-15.241-19.055l-18.022,3.601
				c-3.541,0.725-7.091-0.862-8.96-3.917c-1.86-3.055-1.621-6.955,0.606-9.754c0.196-0.256,19.465-25.148,22.332-61.193
				c-36.25,2.85-60.919,22.127-61.184,22.332c-2.816,2.227-6.699,2.466-9.754,0.606c-3.055-1.869-4.625-5.444-3.917-8.96
				l3.593-18.014l-19.055-15.249c-2.022-1.613-3.2-4.07-3.2-6.665c0-2.586,1.178-5.043,3.2-6.664l19.055-15.241l-3.593-18.022
				c-0.708-3.516,0.862-7.091,3.917-8.951c3.055-1.877,6.938-1.63,9.754,0.597c0.247,0.196,25.139,19.464,61.184,22.332
				c-2.842-36.241-22.127-60.919-22.332-61.184c-2.227-2.807-2.466-6.707-0.606-9.762c1.877-3.055,5.487-4.608,8.96-3.917
				l18.022,3.61l15.241-19.055c3.251-4.053,10.078-4.053,13.329,0l15.241,19.055l18.022-3.61c3.533-0.708,7.083,0.862,8.96,3.917
				c1.86,3.055,1.621,6.955-0.606,9.762c-0.196,0.247-19.465,25.148-22.332,61.184c36.25-2.842,60.919-22.118,61.184-22.332
				c2.816-2.227,6.69-2.475,9.754-0.597c3.055,1.86,4.625,5.436,3.917,8.951l-3.593,18.022l19.055,15.241
				c2.022,1.621,3.2,4.079,3.2,6.664C376.446,250.018,375.269,252.476,373.246,254.089z"/>
			<path d="M336.438,227.269l0.785-3.942c-14.242,7.287-36.335,15.565-63.181,15.565c-4.71,0-8.533-3.814-8.533-8.533
				c0-26.837,8.277-48.93,15.573-63.172l-3.934,0.785c-3.115,0.64-6.34-0.538-8.346-3.038l-11.827-14.78l-11.819,14.78
				c-2.005,2.5-5.239,3.669-8.346,3.038l-3.934-0.785c7.296,14.242,15.565,36.335,15.565,63.172c0,4.719-3.814,8.533-8.533,8.533
				c-26.837,0-48.93-8.277-63.172-15.565l0.785,3.942c0.623,3.123-0.546,6.34-3.038,8.337l-14.78,11.819l14.78,11.827
				c2.492,1.988,3.661,5.205,3.038,8.337l-0.785,3.942c14.242-7.287,36.335-15.573,63.172-15.573c4.719,0,8.533,3.823,8.533,8.533
				c0,26.837-8.269,48.93-15.565,63.181l3.934-0.794c0.563-0.111,1.118-0.162,1.673-0.162c2.56,0,5.026,1.152,6.673,3.2
				l11.819,14.788l11.827-14.788c2.005-2.5,5.222-3.661,8.346-3.038l3.934,0.794c-7.296-14.251-15.573-36.343-15.573-63.181
				c0-4.71,3.823-8.533,8.533-8.533c26.846,0,48.939,8.286,63.181,15.573l-0.785-3.942c-0.623-3.132,0.538-6.349,3.029-8.337
				l14.788-11.827l-14.788-11.819C336.975,233.609,335.815,230.392,336.438,227.269z"/>
			<path d="M453.249,264.308V119.429c0-4.719-3.823-8.533-8.533-8.533c-37.641,0-68.267-30.626-68.267-68.267
				c0-14.327-18.057-24.576-34.961-29.389c-62.02-17.655-107.853-17.655-169.054,0.008c-16.879,4.881-34.918,15.155-34.918,29.38
				c0,37.641-30.626,68.267-68.267,68.267c-4.719,0-8.533,3.814-8.533,8.533l0.009,144.64
				c-0.273,5.461-4.403,135.057,192.043,246.775c1.306,0.742,2.756,1.118,4.215,1.118s2.91-0.375,4.215-1.118
				C455.391,400.415,453.582,272.5,453.249,264.308z M261.505,460.993c-1.382,0.87-2.961,1.297-4.523,1.297
				c-1.579,0-3.14-0.427-4.531-1.297C103.826,367.997,103.305,269.881,103.357,265.75l0.06-1.357l-0.034-110.174
				c0-3.533,2.176-6.699,5.47-7.97c36.651-14.054,63.403-46.754,69.82-85.333c0.538-3.251,2.901-5.897,6.059-6.801
				c27.631-7.945,49.818-11.486,71.945-11.486s44.493,3.541,72.525,11.477c3.174,0.905,5.547,3.55,6.084,6.81
				c6.426,38.579,33.178,71.279,69.82,85.333c3.302,1.271,5.478,4.437,5.478,7.97l0.043,111.991
				C410.659,270.657,409.669,368.287,261.505,460.993z"/>
		</g>
	</g>
</g>
</svg>